<?xml version="1.0" encoding="UTF-8"?> <svg xmlns="http://www.w3.org/2000/svg" width="2466.01" height="934.723" viewBox="0 0 2466.01 934.723"><g id="Group_164209" data-name="Group 164209" transform="translate(-2513.313 -237.403)"><path id="Path_39398" data-name="Path 39398" d="M3995.691,347.336l12.561-4.348,13.732-4.63,22.318-7.637c12.418-4.227,16.976-5.925,16.532-5.948-.457-.058-5.916,1.56-13.547,3.909l-12.713,3.976c-4.524,1.478-9.214,3.082-13.744,4.617l-12.716,4.385c-3.818,1.374-7.1,2.619-9.514,3.554C3974.058,354.428,3980.612,352.5,3995.691,347.336Z" transform="translate(-407.509 -24.237)" fill="#f3f3f3"></path><path id="Path_39399" data-name="Path 39399" d="M4181.928,286.2l9.761-2.509c3.707-.968,7.88-1.907,12.35-3,17.872-4.436,40.961-9.634,62.592-13.934,21.624-4.333,41.757-7.844,53.516-9.824,3.726-.649,7.171-1.161,10.33-1.675l8.651-1.371,12.586-1.908c6.4-.939,8.928-1.334,8.44-1.351-.973-.018-14.028,1.475-32.239,4.206-18.213,2.7-41.565,6.711-63.2,11.086s-41.567,8.972-53.139,12.024l-18.648,4.731-12.26,3.4c-6.218,1.744-8.667,2.48-8.178,2.427S4176.4,287.608,4181.928,286.2Z" transform="translate(-460.266 -3.669)" fill="#f3f3f3"></path><path id="Path_39400" data-name="Path 39400" d="M4096.09,323.425c-9.485,3.087,8.536-2.28,12.174-3.632C4105.246,320.621,4100.657,321.95,4096.09,323.425Z" transform="translate(-438.332 -22.856)" fill="#f3f3f3"></path><path id="Path_39401" data-name="Path 39401" d="M4115.989,316.419c4.423-1.484-2.346.432-4.1,1.069C4107.471,318.97,4114.226,317.054,4115.989,316.419Z" transform="translate(-443.061 -21.767)" fill="#f3f3f3"></path><path id="Path_39402" data-name="Path 39402" d="M4740.788,748.9c2.291-2.419,4.444-4.851,6.6-7.215Z" transform="translate(-617.938 -139.897)" fill="#f3f3f3"></path><path id="Path_39403" data-name="Path 39403" d="M4851.384,556.5q.618-1.564,1.26-3.191c.5-1.285,1-2.626,1.475-3.981a122.688,122.688,0,0,0,4.637-16.966q.2-1.071.4-2.13.168-.975.335-1.939.281-1.659.554-3.265c.368-2.211.722-4.333,1.055-6.32.659-4.068,1.189-7.741,1.513-10.511.906-7.012,1.248-12.206,1.349-15.484s.006-4.661-.079-4.4-.225,2.09-.479,4.969-.685,6.742-1.3,11.063-1.4,9.079-2.24,13.839c-.413,2.325-.834,4.7-1.256,7.073q-.3,1.726-.6,3.447c-.249,1.434-.511,2.859-.8,4.267a133.226,133.226,0,0,1-4.2,15.585c-.388,1.15-.773,2.258-1.158,3.312-.344.938-.674,1.836-.987,2.688-.588,1.614-1.111,3.054-1.556,4.275-2.3,6.208-3.973,10.539-5,13.25s-1.4,3.816-1.231,3.65a145.087,145.087,0,0,0,5.9-13.259C4849.731,560.6,4850.54,558.595,4851.384,556.5Z" transform="translate(-646.304 -69.597)" fill="#f3f3f3"></path><path id="Path_39404" data-name="Path 39404" d="M4832.628,626.644c7.2-15.708-.373.253-4.208,8.1.729-1.315,1.459-2.668,2.178-4.028C4831.279,629.348,4831.96,627.982,4832.628,626.644Z" transform="translate(-642.248 -106.133)" fill="#f3f3f3"></path><path id="Path_39405" data-name="Path 39405" d="M4840.366,617.381c-1.208,3.1.329-.2,1.476-2.881,1.122-2.673,1.916-4.727-.579.823C4840.959,616.006,4840.654,616.689,4840.366,617.381Z" transform="translate(-645.44 -103.867)" fill="#f3f3f3"></path><path id="Path_39406" data-name="Path 39406" d="M3626.362,405.574q44.648-20.085,89.61-38.575c7.518-3.03,15.006-6.1,22.526-9.09l22.591-8.829,22.669-8.536c3.767-1.442,7.57-2.791,11.364-4.158l11.376-4.1c60.725-21.6,122.286-40.169,184.784-54.033q23.405-5.257,46.956-9.634c15.694-2.933,31.418-5.646,47.188-8.01q23.651-3.57,47.392-6.35,23.745-2.713,47.565-4.608l11.913-.892,11.923-.757,11.7-.722c3.942-.245,7.969-.486,12.081-.668a222.132,222.132,0,0,1,25.726.131l3.307.27,3.037.289c2.016.182,4.071.416,6.11.631s4.116.489,6.171.733c2.074.279,4.151.561,6.235.869a210.034,210.034,0,0,1,25.371,5.352,155.215,155.215,0,0,1,25.072,9.434c4.069,1.919,8.015,4.08,11.877,6.346,1.938,1.124,3.768,2.34,5.653,3.512s3.673,2.487,5.509,3.731a161.475,161.475,0,0,1,37.821,37.422,170.362,170.362,0,0,1,13.786,22.689c.96,1.981,1.954,3.95,2.875,5.945.884,2,1.8,4.025,2.648,6.012,1.649,3.914,3.2,7.94,4.657,12.045a166.506,166.506,0,0,1,6.909,25.72c.8,4.432,1.407,8.906,1.825,13.389.393,4.491.6,8.949.638,13.44a171.394,171.394,0,0,1-2.311,26.523c-.634,4.126-1.323,8.129-1.994,12.014l-1,5.811q-.595,3.458-1.386,6.886a122.8,122.8,0,0,1-3.948,13.466l-.6,1.642-.585,1.547-1.079,2.81-2.195,5.643c-2.982,7.552-6.14,15.189-9.659,22.832a253.5,253.5,0,0,1-11.876,22.774c-1.134,1.864-2.235,3.74-3.44,5.58l-1.782,2.766-1.857,2.735c-1.214,1.835-2.565,3.6-3.847,5.406l-3.745,4.913c-2.493,3.26-4.967,6.538-7.557,9.7s-5.089,6.427-7.742,9.527c-20.873,25.2-43.521,48.48-66.39,71.112-3.7,4.659-1.154,2.9,6.067-3.681,7.193-6.635,19.107-18.079,33.706-33.451,7.315-7.657,15.223-16.4,23.512-25.978l6.25-7.385c2.121-2.493,4.18-5.127,6.315-7.742l3.205-3.968,3.165-4.1,3.193-4.153c1.077-1.411,2.119-2.721,3.283-4.357a225.649,225.649,0,0,0,23.168-40.493c3.2-7.033,6.125-14.111,8.892-21.125q1.022-2.621,2.046-5.246l1.006-2.613.523-1.369.578-1.557a126.288,126.288,0,0,0,3.9-12.771q.806-3.249,1.433-6.536l.3-1.643.267-1.538.452-2.639c.611-3.551,1.255-7.219,1.869-11a211.182,211.182,0,0,0,2.754-24.089c.052-1.068.075-2.159.11-3.235q.013-1.649.025-3.292c-.05-2.067-.046-4.107-.167-6.165-.154-4.1-.538-8.2-1.012-12.245-.491-4.049-1.17-8.042-1.94-11.965-.819-3.907-1.727-7.75-2.776-11.469a198.893,198.893,0,0,0-7.224-20.977c-1.286-3.211-2.779-6.537-4.224-9.742l-2.3-4.732c-.753-1.567-1.61-3.077-2.4-4.6A166.856,166.856,0,0,0,4393.8,315.5l-1.353-1.953q-.708-.948-1.4-1.887c-.937-1.246-1.854-2.484-2.783-3.689-1.936-2.353-3.747-4.706-5.694-6.844a166.917,166.917,0,0,0-21.934-20.934,195.54,195.54,0,0,0-16.642-11.723l-5.074-3.085c-1.241-.761-2.049-1.2-2.316-1.412-.557-.381,1.029.2,4.831,2.271l2.529,1.439,2.415,1.494c1.6,1.007,3.208,1.944,4.729,3.01,1.536,1.041,3.063,2.061,4.559,3.1l4.366,3.217a174.214,174.214,0,0,1,15.722,13.533,168.488,168.488,0,0,1,23.447,28.66c3.157,4.767,5.842,9.547,8.347,14.194,1.2,2.343,2.364,4.655,3.466,6.94l1.563,3.424c.512,1.13,1.041,2.267,1.484,3.339a199.567,199.567,0,0,1,9.125,25.616,159.261,159.261,0,0,1,4.781,24.493c.469,3.931.733,7.769.912,11.516q.046,1.4.092,2.791l.041,1.4.009,1.48c.011.99.007,1.963-.019,2.912s-.034,1.913-.08,2.835a203.091,203.091,0,0,1-1.965,20.45c-.44,3.15-.91,6.184-1.374,9.133q-.683,4.336-1.372,8.69a127.738,127.738,0,0,1-5.5,21.819c-.309.895-.654,1.84-.966,2.689l-.835,2.249q-.85,2.267-1.717,4.58c-1.167,3.092-2.4,6.278-3.708,9.564-2.625,6.569-5.538,13.549-9.1,21.024-.906,1.868-1.8,3.765-2.792,5.692q-.735,1.445-1.483,2.914-.781,1.465-1.577,2.956c-1.037,1.989-2.221,4-3.362,6.042q-.906,1.526-1.831,3.078t-1.914,3.117l-2,3.155-2.132,3.179c-.706,1.074-1.473,2.134-2.238,3.207l-1.155,1.616-.583.813-.547.725-4.457,5.906c-1.523,1.994-3.035,4.072-4.666,6.086q-2.421,3.052-4.935,6.219c-.842,1.051-1.675,2.131-2.547,3.187l-2.645,3.189-5.444,6.558-5.756,6.677-2.965,3.43-3.062,3.436q-3.1,3.459-6.316,7.051c-4.347,4.7-8.83,9.625-13.579,14.579q-14.181,14.971-30.894,31.547c7.661-7.452,19.106-18.67,33.47-33.659,1.8-1.857,3.634-3.807,5.506-5.816l5.77-6.165,5.976-6.579,3.086-3.406,3.111-3.541c8.426-9.479,17.268-20.135,26.371-31.881l3.421-4.463,1.73-2.259q.927-1.271,1.861-2.552c2.524-3.449,4.892-7.037,7.219-10.7a243.188,243.188,0,0,0,12.623-22.924c3.828-7.886,7.289-15.95,10.57-24.059,1.625-4.047,3.226-8.121,4.782-12.178l.622-1.626.7-1.895c.46-1.268.9-2.552,1.322-3.845.843-2.59,1.62-5.224,2.31-7.9s1.3-5.384,1.823-8.123c.568-3.043.827-4.742,1.227-6.989.752-4.322,1.561-8.936,2.308-13.79.74-4.882,1.43-10.018,1.876-15.527.226-2.749.378-5.6.453-8.541l.025-2.236c.006-.754.01-1.505-.008-2.179-.029-1.391-.044-2.781-.094-4.181a161.792,161.792,0,0,0-4.833-33.967c-1.406-5.593-3.093-11.082-4.976-16.414q-1.415-4-2.958-7.887c-.5-1.309-1.044-2.569-1.567-3.859l-.4-.962-.437-.994-.876-1.989a175.29,175.29,0,0,0-41.577-58.669c-2.332-2.048-4.611-4.177-7.056-6.111-1.21-.981-2.407-1.985-3.64-2.941l-3.744-2.815c-1.24-.955-2.529-1.834-3.816-2.721s-2.567-1.792-3.878-2.643c-2.654-1.666-5.232-3.379-8.04-4.95-2.736-1.636-5.6-3.1-8.445-4.6-2.9-1.4-5.8-2.826-8.78-4.064a161.02,161.02,0,0,0-18.14-6.555c-6.116-1.81-12.25-3.278-18.319-4.477-6.065-1.181-12.043-2.078-17.927-2.831l-4.393-.533-4.351-.474-4.306-.425-2.217-.208-2.478-.2c-6.573-.475-12.942-.564-19.042-.44-6.12.113-11.98.426-17.635.753l-16.607.994-8.5.522-8.507.608-8.518.634-8.521.722a1354.185,1354.185,0,0,0-136.019,18.81c-44.874,8.473-88.984,19.307-131.33,31.568-10.624,2.963-21.039,6.3-31.427,9.453-5.2,1.555-10.319,3.28-15.439,4.932l-15.277,4.973-15.048,5.152-7.466,2.563c-2.484.849-4.961,1.7-7.41,2.6l-14.648,5.275-7.263,2.616c-2.413.873-4.795,1.794-7.185,2.685-38.218,14.235-74.082,28.91-107.063,43.124-65.968,28.476-120.443,54.864-159.169,73.952-38.687,19.154-61.441,31.224-63.088,32.3-1.6,1.165,17.851-8.776,64.718-31.431,116.676-57.219,204.258-93.749,272.708-118.481,34.2-12.421,63.641-21.854,89.576-29.6l9.562-2.841,4.659-1.382,4.6-1.283,17.682-4.888L3917,290.6l4.2-1.084,8.226-2.1,15.78-3.991,15.089-3.506,7.3-1.689c2.408-.566,4.8-1.107,7.178-1.6,9.5-2.071,18.715-3.958,27.846-5.756,18.265-3.574,36.2-6.725,55.508-9.714s39.971-5.832,63.734-8.452,50.619-5.061,82.319-6.7q-62.724,3.513-125.1,13.026-31.148,4.72-62.1,10.859c-20.625,4.1-41.178,8.6-61.609,13.731-81.857,20.017-161.588,47.663-239.268,79.248l-7.288,2.955-7.253,3.029-14.5,6.06c-9.648,4.08-19.246,8.261-28.863,12.4-9.559,4.25-19.152,8.438-28.677,12.746l-14.277,6.483-7.135,3.246-7.1,3.3q-56.856,26.325-112.661,54.453-55.781,28.158-110.481,57.947-54.691,29.761-108.194,61.071,89.506-50.122,178.5-95.429Q3537.271,445.849,3626.362,405.574Z" transform="translate(-209.826)" fill="#f3f3f3"></path><path id="Path_39407" data-name="Path 39407" d="M4703.433,764.557c-3.38,3.6-1.8,2.089.942-.685s6.587-6.886,7.834-8.347C4709.994,757.7,4706.707,761.117,4703.433,764.557Z" transform="translate(-607.043 -143.735)" fill="#f3f3f3"></path><path id="Path_39408" data-name="Path 39408" d="M4719.6,752.954c1.535-1.736,1.081-1.355.1-.355s-2.526,2.575-3.13,3.278C4713.47,759.308,4718.379,754.364,4719.6,752.954Z" transform="translate(-610.938 -142.688)" fill="#f3f3f3"></path><path id="Path_39409" data-name="Path 39409" d="M4702,779.6c1.361-1.265,6.125-6.379,2.807-3.144C4703.441,777.731,4698.687,782.829,4702,779.6Z" transform="translate(-606.857 -149.25)" fill="#f3f3f3"></path><path id="Path_39410" data-name="Path 39410" d="M5522.435,1118.777c-3.352.086-7.983.171-13.387.416-10.808.423-24.708,1.219-37.646,2.187-6.469.5-12.7,1.016-18.179,1.526-5.48.536-10.217.993-13.7,1.409l-11.239,1.274c-3.091.362-5.545.7-7.43.945-3.769.508-5.256.764-4.965.821s2.361-.084,5.7-.373l13.35-1.184c10.777-.989,24.645-2.123,37.571-3.1,6.463-.467,12.69-.939,18.178-1.29l13.735-.952,18.727-1.187c3.786-.269,5.283-.4,5-.481A54.681,54.681,0,0,0,5522.435,1118.777Z" transform="translate(-805.212 -244.492)" fill="#f3f3f3"></path><path id="Path_39411" data-name="Path 39411" d="M5162.5,1153.756c-24.554,4.869-56.023,11.759-85.205,18.959-29.2,7.113-56.111,14.413-71.771,18.805-39.724,11.189-54.294,15.911-53,15.639,1.3-.226,18.519-5.226,42.723-11.868,24.2-6.672,55.406-14.89,84.6-21.97,29.174-7.166,56.329-13.106,72.216-16.53,20.116-4.278,33.938-6.965,42.548-8.665s12.019-2.368,11.357-2.324C5204.641,1145.894,5187.045,1148.862,5162.5,1153.756Z" transform="translate(-676.654 -252.004)" fill="#f3f3f3"></path><path id="Path_39412" data-name="Path 39412" d="M5405.15,1128.972c-.588.023-2.62.235-5.214.529l-8.6,1.013c-2.834.355-5.3.814-6.563,1.041l3.447-.448,1.964-.261,2.107-.229c2.884-.319,6.038-.691,9.2-1.1C5404.752,1129.079,5405.734,1128.948,5405.15,1128.972Z" transform="translate(-796.589 -247.335)" fill="#f3f3f3"></path><path id="Path_39413" data-name="Path 39413" d="M5377.862,1134.885a13.636,13.636,0,0,0-2.059.406,16.3,16.3,0,0,0,1.654-.172c1.842-.231,4.744-.647,5.954-.875C5389.462,1133.218,5380.292,1134.434,5377.862,1134.885Z" transform="translate(-794.1 -248.687)" fill="#f3f3f3"></path><path id="Path_39414" data-name="Path 39414" d="M3926.347,1264.3c.122,2.612.222,5.2.462,7.755-.445-5.444-.581-10.838-.485-15.7C3926.24,1259.038,3926.3,1261.683,3926.347,1264.3Z" transform="translate(-391.98 -282.672)" fill="#f3f3f3"></path><path id="Path_39415" data-name="Path 39415" d="M4153.845,1461.828c-3.831.853-7.693,1.629-11.53,2.2a158.181,158.181,0,0,1-21.792,1.84c-6.62.1-12.336-.248-16.533-.577-2.653-.28-5.106-.507-7.332-.847l-3.2-.456-2.89-.495c-1.838-.3-3.465-.641-4.921-.935l-2.051-.415-1.82-.417c-2.258-.515-3.836-.872-4.8-1.13-.97-.238-1.341-.3-1.187-.209a18.953,18.953,0,0,0,1.964.715c1.132.374,2.733.795,4.712,1.339a146.863,146.863,0,0,0,37.565,4.739,152.782,152.782,0,0,0,23.7-1.953c1.93-.313,3.827-.687,5.7-1.031,1.857-.406,3.695-.791,5.48-1.213l2.635-.666.565-.144-.071.014.054-.012a1.566,1.566,0,0,1,.245-.055l3.545-.623c5.718-1,10.661-1.894,14.3-2.585l3.325-.6c1.061-.2,2.066-.434,3.035-.635l5.294-1.143,7.682-1.7c3.895-.885,5.423-1.289,5.111-1.316-.624-.054-8.609,1.4-19.772,3.533-5.608.968-12.05,1.97-18.75,3.091l-4.081.671C4158.3,1460.715,4155.588,1461.423,4153.845,1461.828Z" transform="translate(-433.447 -337.37)" fill="#f3f3f3"></path><path id="Path_39416" data-name="Path 39416" d="M4037.6,1447.3c-1.779-.907-3.605-1.821-5.326-2.745-1.708-.947-3.368-1.8-4.782-2.634a121.493,121.493,0,0,0,12.178,6.644c6.029,2.841,9.124,3.92,10.032,4.26.916.323-.306-.209-2.674-1.2C4044.661,1450.618,4041.184,1449.053,4037.6,1447.3Z" transform="translate(-420.057 -334.153)" fill="#f3f3f3"></path><path id="Path_39417" data-name="Path 39417" d="M4058.048,1459.046c1.234.5,3.618,1.386,5.76,2.111,2.152.7,4.041,1.292,4.289,1.323.228.033-1.2-.443-5.674-2.02l-3.272-1.169C4056.721,1458.452,4056.821,1458.518,4058.048,1459.046Z" transform="translate(-428.3 -338.795)" fill="#f3f3f3"></path><path id="Path_39418" data-name="Path 39418" d="M3926.987,1205.208l0-.015v0Z" transform="translate(-392.177 -268.481)" fill="#f3f3f3"></path><path id="Path_39419" data-name="Path 39419" d="M3926.964,1205.281c-.005.023.006-.03.016-.069l0,.011Z" transform="translate(-392.169 -268.486)" fill="#f3f3f3"></path><path id="Path_39420" data-name="Path 39420" d="M3926.993,1205.175c0-.017,0-.01,0,0v.005Z" transform="translate(-392.177 -268.473)" fill="#f3f3f3"></path><path id="Path_39421" data-name="Path 39421" d="M4189.542,1462.781l-.013,0,.063-.011h-.007Z" transform="translate(-465.01 -339.937)" fill="#f3f3f3"></path><path id="Path_39422" data-name="Path 39422" d="M5369.333,842.908q-.01-1.3-.021-2.587t-.036-2.576l-.023-1.285-.065-1.14q-.144-2.249-.285-4.481a187.713,187.713,0,0,0-5.706-34.566,162.275,162.275,0,0,0-11.85-31.59,136.763,136.763,0,0,0-17.805-27.031q-2.629-2.957-5.24-5.815c-1.832-1.831-3.672-3.617-5.493-5.375-.466-.464-.887-.817-1.32-1.2l-1.289-1.135-2.56-2.247c-.838-.753-1.717-1.462-2.59-2.167l-2.6-2.1a178.182,178.182,0,0,0-21.03-14.386,164.843,164.843,0,0,0-20.614-10.061l-4.936-1.908c-1.624-.6-3.246-1.112-4.826-1.65-3.148-1.111-6.256-1.9-9.209-2.748-1.479-.42-2.947-.718-4.374-1.066-1.43-.327-2.825-.673-4.195-.953-2.745-.5-5.36-1.032-7.849-1.415-2.49-.345-4.849-.689-7.072-.957l-6.257-.578c-1.949-.177-3.75-.21-5.417-.3l-2.393-.107-1.094-.042-.922-.011c-4.8-.052-7.613-.057-8.312-.01s.725.143,4.407.294l3.188.124,1.938.074,2.455.156c1.72.119,3.6.212,5.663.392l6.7.715a167.212,167.212,0,0,1,36.79,8.963,164.807,164.807,0,0,1,23.234,10.85,172.4,172.4,0,0,1,24.563,16.906c2.608,2.057,5.035,4.249,7.483,6.408l.916.811.957.923,1.906,1.857,1.894,1.862c.635.616,1.259,1.241,1.836,1.9,2.351,2.61,4.747,5.178,6.836,7.934,1.06,1.366,2.182,2.7,3.168,4.1s1.963,2.8,2.941,4.2c1,1.387,1.869,2.832,2.757,4.265s1.785,2.859,2.616,4.307l2.38,4.375c.39.73.8,1.455,1.167,2.189l1.063,2.214,2.1,4.424,1.867,4.461.921,2.227c.308.741.555,1.492.833,2.237q.809,2.242,1.612,4.474a181.8,181.8,0,0,1,8.081,35.615c.222,1.466.333,2.929.487,4.39s.282,2.917.422,4.371q.138,2.18.277,4.35l.132,2.168.031.55.01.612.019,1.224q.023,2.445.044,4.881c0,.405.01.814,0,1.215l-.061,1.191-.13,2.377c-.1,1.578-.157,3.174-.314,4.724q-.274,2.311-.544,4.611l-.283,2.3c-.105.76-.253,1.5-.379,2.246q-.4,2.236-.8,4.463c-.241,1.5-.632,2.916-.956,4.368q-.514,2.162-1.027,4.316c-.806,2.807-1.586,5.618-2.466,8.363l-1.4,4.064c-.467,1.351-.925,2.7-1.469,4.008a169.474,169.474,0,0,1-14.923,29.649,153.638,153.638,0,0,1-20.208,25.625,148.534,148.534,0,0,1-24.5,19.881,162.724,162.724,0,0,1-53.9,22.831,133.862,133.862,0,0,1-28.778,3.2l-3.649-.019-2.857-.079-5.537-.165c-3.672-.116-7.312-.223-10.92-.277-28.853-.626-55.562-.244-80.37.6-24.811.9-47.722,2.33-69.014,4.031-5.326.4-10.544.9-15.671,1.332l-15.093,1.425-14.541,1.5-13.764,1.537c-2.251.249-4.452.614-6.651.911l-6.551.935-13.024,1.943q-12.8,1.956-24.754,3.929c-15.963,2.633-30.9,5.285-45.1,7.94-28.4,5.318-53.876,10.615-78.749,16.179-24.87,5.606-49.163,11.4-75.134,18.065s-53.626,14.177-85.187,23.379c-31.557,9.22-67.032,20.079-108.581,33.688,54.766-18.119,109.935-35.207,165.589-50.634q41.74-11.569,83.84-21.808,42.086-10.259,84.54-18.806t85.228-15.273l10.7-1.638,10.5-1.548c1.741-.28,3.508-.455,5.266-.666l5.277-.615,5.279-.616,5.373-.579q21.486-2.378,43.026-4.114,21.533-1.8,43.1-2.929,21.564-1.2,43.146-1.687c14.385-.374,28.771-.479,43.151-.387,3.594.038,7.19.03,10.784.1l10.781.2,10.776.295,5.5.146,6.785.005a134.7,134.7,0,0,0,26.087-3.5c2.1-.493,4.212-.966,6.254-1.594l3.086-.892c1.029-.3,2.06-.591,3.061-.951l6.04-2.079,5.915-2.343a168.215,168.215,0,0,0,22.586-11.544c1.792-1.139,3.607-2.23,5.369-3.423l5.246-3.655c1.712-1.287,3.407-2.606,5.1-3.916.857-.639,1.673-1.357,2.5-2.055l2.469-2.106c1.664-1.366,3.221-2.933,4.817-4.422.783-.762,1.6-1.487,2.354-2.285l2.263-2.383,2.254-2.393,2.111-2.465c1.4-1.645,2.825-3.286,4.1-5a160.634,160.634,0,0,0,31.244-69.2l.567-3.231c.153-1.092.274-2.2.41-3.295.251-2.205.567-4.38.649-6.646l.188-3.369.087-1.684c.03-.56,0-1.14.008-1.71l-.032-3.431-.024-1.715c-.008-.573-.014-1.159-.054-1.647a190.247,190.247,0,0,0-2.8-24.593,176.084,176.084,0,0,0-6.176-24.35,151.759,151.759,0,0,0-10.242-23.55,131.028,131.028,0,0,0-14.714-21.773c-1.434-1.691-2.951-3.323-4.435-4.976l-1.125-1.231-1.192-1.174-2.393-2.34-1.2-1.165c-.4-.384-.808-.793-1.189-1.115l-2.328-2.05c-1.549-1.368-3.1-2.736-4.734-4.027a161.926,161.926,0,0,0-43.252-25.728,151.477,151.477,0,0,0-24.3-7.423,168.912,168.912,0,0,0-24.921-3.427l-3.115-.162-1.558-.079-.778-.038-.7-.014-5.547-.106-11.092-.21-11.091-.207c-1.848-.048-3.7-.051-5.542-.038l-5.542.015-22.161.069-22.134.528c-3.687.109-7.378.136-11.06.314l-11.047.491-11.044.494-5.52.248c-1.842.078-3.676.224-5.515.333l-22.039,1.421c-3.675.209-7.339.528-11,.837l-10.992.918-10.988.921c-3.663.3-7.312.724-10.966,1.081l-21.913,2.244-21.848,2.625c-3.638.454-7.285.84-10.912,1.352l-10.887,1.5-10.882,1.5c-3.628.5-7.255.988-10.867,1.569l-21.687,3.351c47.9-7.01,95.747-12.3,143.458-15.586,5.957-.493,11.93-.739,17.888-1.093l17.866-.994,17.861-.658,8.919-.325,4.456-.161,4.46-.075,17.82-.3,8.9-.139,8.9.034,17.773.067c1.479.013,2.958,0,4.438.033l4.438.11,8.871.222,8.863.222,4.43.111,2.214.055,1.105.028c.372.009.808.041,1.207.061,3.269.189,6.532.324,9.8.707,1.634.183,3.268.288,4.9.543l4.89.713A153.939,153.939,0,0,1,5253.021,696l2.386.694c.791.242,1.572.524,2.357.785l4.7,1.61c3.077,1.228,6.2,2.351,9.194,3.759a160.793,160.793,0,0,1,33.646,20.266l3.766,3.064,1.878,1.536,1.81,1.6,3.613,3.2,3.683,3.606,1.828,1.816,1.718,1.907c1.139,1.277,2.294,2.543,3.406,3.838l3.17,4.006c.517.674,1.07,1.328,1.557,2.021l1.456,2.081a131.025,131.025,0,0,1,10.309,17.283l2.135,4.5.53,1.125.478,1.14.949,2.283c1.319,3.031,2.379,6.123,3.485,9.2a164.925,164.925,0,0,1,5.124,18.74c.735,3.141,1.2,6.3,1.774,9.456.244,1.579.44,3.161.66,4.741l.32,2.371c.094.79.162,1.582.243,2.373l.463,4.745.3,4.746.139,2.383.034,2.6c0,1.733.06,3.482,0,5.2-.2,3.41-.317,6.856-.794,10.179l-.306,2.512c-.1.84-.206,1.675-.365,2.49l-.884,4.923-.227,1.23-.279,1.207-.567,2.41-.573,2.409-.289,1.2-.341,1.18-1.377,4.715-.347,1.178-.4,1.154-.8,2.307a157.887,157.887,0,0,1-7.444,17.918,156.157,156.157,0,0,1-21.189,32.463c-2.075,2.529-4.4,4.918-6.687,7.321-1.154,1.189-2.386,2.3-3.581,3.445l-1.808,1.7c-.609.556-1.242,1.074-1.862,1.611l-3.749,3.187-3.866,2.981-1.94,1.478-1.99,1.39c-1.328.921-2.651,1.855-3.99,2.759l-4.089,2.574c-.685.424-1.361.862-2.052,1.274l-2.1,1.19-4.2,2.365-4.291,2.182-2.148,1.084-2.192.994-4.39,1.976-4.479,1.786-2.242.885c-.754.279-1.522.531-2.282.8l-4.577,1.565c-1.543.48-3.106.913-4.66,1.368l-2.334.67c-.779.221-1.581.387-2.371.581l-4.758,1.114c-1.6.332-3.226.6-4.839.9l-2.423.43c-.809.137-1.64.217-2.459.326l-4.931.6c-1.664.136-3.339.226-5.007.334l-2.505.149-2.54.01-5.032-.018-8.359-.236c-5.57-.183-11.143-.251-16.71-.353s-11.136-.094-16.7-.148l-16.687.064q-33.364.35-66.589,2.234-33.218,1.849-66.248,5.188c-5.5.553-11.006,1.107-16.5,1.733l-8.232.914-8.114.968c-5.426.573-10.775,1.465-16.149,2.247-5.447.85-10.92,1.676-16.368,2.572q-65.444,10.554-129.845,25.415c-85.874,19.685-170.354,44.266-253.944,71.482q-31.341,10.241-62.558,20.883-15.608,5.328-31.187,10.755l-15.576,5.439-15.477,5.513c-41.269,14.767-82.439,30.651-124.283,45.676-10.428,3.8-20.979,7.431-31.489,11.121-10.589,3.555-21.129,7.209-31.822,10.576-10.625,3.5-21.4,6.693-32.147,9.959-5.4,1.575-10.828,3.069-16.244,4.606-2.712.754-5.411,1.549-8.137,2.27l-8.2,2.116-8.2,2.115c-2.732.708-5.463,1.423-8.229,2.035l-16.548,3.827c-2.749.671-5.544,1.19-8.323,1.762l-8.347,1.688-8.349,1.685-8.413,1.45-8.419,1.436-4.209.716-1.163.2c-.125.021-.265.067-.375.089-.007,0,.067-.016-.206.053l-.574.144A154.165,154.165,0,0,1,4094,1246.9a147.532,147.532,0,0,1-38.19-.154l-4.721-.714-4.687-.86c-1.556-.308-3.1-.666-4.648-1s-3.125-.772-4.685-1.16a151.05,151.05,0,0,1-18.149-6.175,146.673,146.673,0,0,1-33.2-19.084c-1.279-.959-2.507-1.979-3.759-2.969s-2.438-2.054-3.656-3.082-2.367-2.125-3.55-3.188-2.322-2.216-3.48-3.325a152.3,152.3,0,0,1-12.72-14.336,146.615,146.615,0,0,1-19.455-33.074c-.626-1.474-1.2-2.966-1.8-4.449-.576-1.491-1.1-3-1.656-4.5-.527-1.505-1.007-3.024-1.509-4.536-.485-1.529-.931-3.105-1.392-4.658-.44-1.561-.806-3.139-1.207-4.709s-.694-3.115-1.042-4.676c-.64-3.121-1.2-6.266-1.646-9.436a147.417,147.417,0,0,1-.434-38.418,153.545,153.545,0,0,1,3.478-18.849c.5-1.976.532-2.018.627-2.606l.762-4.336.764-4.337c.262-1.443.572-2.875.856-4.313.6-2.869,1.122-5.759,1.786-8.609l1.951-8.565c1.419-5.673,2.825-11.354,4.428-16.967.8-4.229.789-5.314.036-3.65-.373.834-.927,2.356-1.648,4.52s-1.639,4.957-2.582,8.39c-.968,3.423-2.109,7.432-3.208,12.046-.55,2.306-1.205,4.727-1.748,7.322q-.84,3.885-1.765,8.156c-.576,2.856-1.114,5.856-1.7,8.967q-.108.584-.218,1.174c-.027.154-.012.049-.012.043,0-.024.012-.064,0-.012l-.039.179c-.012.06-.036.117-.051.176s-.038.144-.029.084c-.1.377-.2.754-.3,1.135q-.338,1.306-.684,2.635-.308,1.342-.621,2.708a147.845,147.845,0,0,0-3.42,23.748q-.091,1.593-.182,3.208-.04,1.618-.082,3.257c-.081,2.185,0,4.4.009,6.639.164,4.473.411,9.059,1,13.693.118,1.163.282,2.324.456,3.49s.328,2.341.53,3.513c.417,2.338.819,4.708,1.351,7.062.47,2.349,1.1,4.781,1.7,7.214.685,2.408,1.378,4.9,2.173,7.25.749,2.391,1.634,4.771,2.508,7.172.94,2.382,1.879,4.786,2.949,7.166a148.58,148.58,0,0,0,7.148,14.187,151.129,151.129,0,0,0,76.327,65.583l4.172,1.543c1.395.507,2.807.95,4.213,1.424,1.387.481,2.884.887,4.327,1.328s2.923.811,4.393,1.186l2.208.556,2.18.484c1.456.317,2.9.653,4.379.91,2.931.578,5.9,1.036,8.874,1.455a152.159,152.159,0,0,0,53.97-2.567c1.466-.31,2.9-.707,4.349-1.061l.252-.063a1.737,1.737,0,0,1,.256-.053l-.01,0c-.006,0-.192.03-.047.006l.112-.019h.007l.126-.022.979-.166,7.824-1.33,7.8-1.329c2.6-.443,5.193-.864,7.751-1.412l15.325-3.093c5.1-.966,10.084-2.223,15.072-3.347l7.445-1.72c2.472-.572,4.942-1.123,7.366-1.773,9.719-2.535,19.347-4.873,28.6-7.578,37.194-10.4,70.354-21.654,97.074-31.039,6.7-2.324,12.943-4.607,18.8-6.68l16.163-5.819,23.432-8.453c11.331-4.047,13.648-4.692,3.993-.809-35.017,13.248-65.1,24.379-91.629,33.507l-9.763,3.375-9.481,3.135c-6.215,2.035-12.166,4.078-18.016,5.855l-16.9,5.273-15.954,4.65c-2.582.736-5.1,1.524-7.625,2.184l-7.455,2c-4.9,1.3-9.654,2.612-14.321,3.809l-13.751,3.322-6.662,1.607c-2.2.536-4.412.958-6.589,1.436-8.737,1.82-17.146,3.767-25.617,5.18l-12.617,2.273-.788.141c-.094.017-.384.068-.167.034l.162-.028c.072-.013,0,0,.007,0a2.764,2.764,0,0,0-.271.071l.094-.017-.442.116-.885.231-1.772.459c-1.183.3-2.385.554-3.581.831s-2.4.543-3.613.765a153.86,153.86,0,0,1-62.441-.395c-2.727-.551-5.585-1.268-8.44-2.009l-4.3-1.251-4.22-1.363a157.547,157.547,0,0,1-17.128-6.921,153.923,153.923,0,0,1-34.167-22.211c-1.4-1.156-2.719-2.406-4.1-3.628s-2.716-2.571-4.087-3.876c-1.345-1.339-2.671-2.728-4.008-4.117-1.28-1.415-2.6-2.813-3.869-4.288a158.47,158.47,0,0,1-14.532-19.518,154.726,154.726,0,0,1-12.007-23.362c-1.762-4.188-3.26-8.524-4.7-12.991-.682-2.3-1.418-4.612-1.983-6.98-.292-1.176-.622-2.38-.877-3.551s-.518-2.352-.779-3.537a155.958,155.958,0,0,1-.291-62.936c.589-2.76,1.182-5.548,1.91-8.315l.122-.486.007-.034.131-.757q.33-1.914.663-3.846c.834-5.166,1.944-10.355,2.986-15.668q3.417-15.849,8.109-32.534c-2.167,7.554-4.851,16.993-7.394,28.39q-.486,2.133-.99,4.348-.458,2.231-.932,4.544c-.632,3.083-1.3,6.27-1.865,9.6q-.443,2.493-.9,5.064l-.114.644c-.01.053-.059.339-.036.2l.03-.175c-.016.053-.02.109-.04.161l-.01.04c0,.023.014-.07.022-.1l-.146.569q-.186.724-.372,1.453c-.519,1.936-.921,3.948-1.379,5.969-.434,2.03-.8,4.112-1.188,6.216a157.53,157.53,0,0,0-2.2,27.12c0,4.783.314,9.67.777,14.641.51,4.967,1.276,10,2.258,15.08a159.433,159.433,0,0,0,3.949,15.577c1.614,5.129,3.518,10.307,5.736,15.484a153.91,153.91,0,0,0,17.383,30.407,157.639,157.639,0,0,0,11.659,14.126c1.063,1.138,2.166,2.271,3.259,3.408s2.259,2.216,3.4,3.328c2.3,2.182,4.623,4.284,7.077,6.344a155.356,155.356,0,0,0,33.169,21.5,158.912,158.912,0,0,0,19.031,7.647c1.611.554,3.318,1.06,5.026,1.565,1.7.531,3.424.956,5.153,1.393,1.741.46,3.44.828,5.148,1.2,1.7.393,3.437.713,5.175,1.032a156.788,156.788,0,0,0,43.45,1.848,159.964,159.964,0,0,0,22.05-3.741l2.535-.634h0l.022-.006.015,0h0l.034-.009a.453.453,0,0,0,.046-.006l-.074.013,4.568-.773,9.725-1.648,4.9-.833,2.456-.418,2.441-.488,9.817-1.971,9.9-1.994c3.3-.71,6.587-1.5,9.9-2.252,26.521-6.007,53.473-13.42,80.674-21.884,27.188-8.49,54.643-17.986,82.336-27.984s55.633-20.487,83.869-30.856q21.179-7.777,42.586-15.364c14.3-5.053,28.852-10.068,43.4-15.054q43.715-14.948,88.344-29.261c59.434-18.979,119.827-36.665,180.222-51.971,60.373-15.387,120.749-28.189,179.983-37.894l11.09-1.783,11.049-1.709,10.731-1.592,10.777-1.277c3.546-.437,7.279-.819,10.91-1.226,3.652-.406,7.3-.807,10.938-1.162l10.894-1.09,10.853-1c14.442-1.259,28.759-2.363,42.936-3.213,14.176-.829,28.207-1.527,42.074-1.947s27.567-.709,41.078-.706c3.379-.027,6.744-.016,10.1.013l10.025.073c6.657.118,13.269.191,19.823.4l4.907.134,2.447.067,3.157.021,3.234,0,1.614-.009c.535-.011,1.057-.054,1.586-.082l6.313-.405a154.636,154.636,0,0,0,23.934-4.332,173.426,173.426,0,0,0,21.994-7.625,183.872,183.872,0,0,0,20.2-10.291,174.4,174.4,0,0,0,18.432-12.813,150.556,150.556,0,0,0,16.439-15.476,163.093,163.093,0,0,0,23.946-35.054,170.7,170.7,0,0,0,8.179-18.633l1.649-4.777c.266-.8.555-1.58.8-2.387s.475-1.619.71-2.426q.7-2.426,1.39-4.836.581-2.466,1.161-4.915.284-1.226.567-2.448c.172-.823.31-1.663.462-2.491q.442-2.494.878-4.972c.26-1.666.43-3.369.638-5.044.188-1.685.423-3.338.49-5.063q.143-2.562.283-5.107c.018-.426.049-.845.056-1.274Zm-1253.871,408.4-.195.032.2-.033Zm.029-.007.013,0h0Z" transform="translate(-390.016 -123.166)" fill="#f3f3f3"></path><path id="Path_39423" data-name="Path 39423" d="M4190.831,1470.109h0Z" transform="translate(-465.371 -341.972)" fill="#f3f3f3"></path><path id="Path_39424" data-name="Path 39424" d="M3927.009,1205.066l-.014.076.007-.03Z" transform="translate(-392.178 -268.445)" fill="#f3f3f3"></path><path id="Path_39425" data-name="Path 39425" d="M3927.017,1205.032l0,.018,0-.023C3927.027,1204.984,3927.017,1205.032,3927.017,1205.032Z" transform="translate(-392.184 -268.43)" fill="#f3f3f3"></path><path id="Path_39426" data-name="Path 39426" d="M3926.992,1205.181v0l0,.007Z" transform="translate(-392.177 -268.475)" fill="#f3f3f3"></path><path id="Path_39427" data-name="Path 39427" d="M3926.986,1205.206l0-.012v0Z" transform="translate(-392.176 -268.48)" fill="#f3f3f3"></path><path id="Path_39428" data-name="Path 39428" d="M3946.147,1210.992c.357-1.415.73-2.9,1.112-4.416.038-.127.047-.259.074-.388l.051-.306c.067-.4.135-.8.2-1.2.139-.834.277-1.674.416-2.514,1.129-6.991.513-3.92-.475,1.587-.119.665-.245,1.368-.373,2.093-.038.207-.077.418-.115.631-.055.215-.111.433-.167.652-.4,1.616-.844,3.255-1.158,4.834-.708,3.136-1.15,5.952-1.363,7.384l.777-3.855C3945.445,1214.1,3945.788,1212.583,3946.147,1210.992Z" transform="translate(-396.993 -266.519)" fill="#f3f3f3"></path><path id="Path_39429" data-name="Path 39429" d="M3941.254,1231.667c.14-1.057.385-2.406.571-3.674s.384-2.443.5-3.137c.576-3.462.348-2.6-.079-.518-.465,2.073-.928,5.408-1.1,6.812C3940.79,1234.663,3940.963,1233.777,3941.254,1231.667Z" transform="translate(-396.048 -273.286)" fill="#f3f3f3"></path><path id="Path_39430" data-name="Path 39430" d="M3943.824,1186.345c-.3,1.309-.949,4.435-1.247,6.441s-.385,2.855.251-.436C3943.408,1189.72,3945.265,1179.821,3943.824,1186.345Z" transform="translate(-396.437 -262.645)" fill="#f3f3f3"></path><path id="Path_39431" data-name="Path 39431" d="M2546.708,989.561c-.5,1.544-.809,3.155-1.2,4.741l-.563,2.39c-.194.8-.307,1.6-.464,2.406-.285,1.609-.6,3.218-.859,4.834l-.638,4.868c-.247,1.624-.312,3.257-.466,4.889-.131,1.634-.29,3.269-.317,4.906l-.168,4.92.057,4.926a137.367,137.367,0,0,0,1.815,19.68l.39,2.453c.143.816.333,1.624.5,2.437.349,1.622.67,3.252,1.048,4.872.866,3.215,1.658,6.458,2.778,9.622.97,3.207,2.309,6.308,3.552,9.446l2.171,4.6.547,1.151c.189.381.409.748.613,1.123l1.25,2.238a104.511,104.511,0,0,1-9.624-19.546c-.3-.791-.629-1.566-.893-2.351l-.77-2.339c-.492-1.55-1.043-3.059-1.459-4.569-.809-3.023-1.685-5.925-2.25-8.767a157.719,157.719,0,0,1-3.739-29.181,167.73,167.73,0,0,1,.388-19.258q.129-1.794.235-3.279c.054-.994.192-1.882.257-2.675.154-1.585.24-2.777.253-3.585.032-1.612-.227-1.689-.762-.3-.266.7-.6,1.758-1,3.179l-.643,2.4q-.272,1.339-.6,2.934l-.658,3.458c-.214,1.239-.364,2.566-.558,3.976l-.281,2.18c-.1.748-.192,1.517-.242,2.306q-.182,2.372-.382,4.985a150.988,150.988,0,0,0,.681,24.69,138.9,138.9,0,0,0,7.17,31.409c.461,1.432,1.057,2.853,1.653,4.293s1.175,2.9,1.829,4.361l2.139,4.387c.378.733.7,1.49,1.131,2.215q.629,1.094,1.262,2.2t1.284,2.22l.65,1.116c.218.365.438.683.657,1.028q1.32,2.033,2.667,4.106c.906,1.377,1.891,2.724,2.85,4.106l1.462,2.072,1.548,2.043c1.053,1.359,2.056,2.77,3.181,4.116l3.369,4.1c2.365,2.684,4.746,5.436,7.374,8.07a149.3,149.3,0,0,0,17.325,15.355,131.5,131.5,0,0,0,21.278,13.051l2.929,1.413c.981.47,2.013.855,3.023,1.285,2.039.829,4.061,1.726,6.2,2.4l3.186,1.085,1.6.535,1.64.45,3.3.894,1.658.444c.559.152,1.06.249,1.594.376a191.268,191.268,0,0,0,26.16,4.129,166.174,166.174,0,0,0,27.965.119,129.57,129.57,0,0,0,29.336-5.747,103.576,103.576,0,0,0,14.678-6.017c2.407-1.226,4.8-2.538,7.136-3.983,1.162-.738,2.344-1.444,3.477-2.249l1.714-1.182,1.477-1.044,22.754-16.2c7.695-5.462,15.439-11.063,23.392-16.564,15.869-11.051,32.009-22.487,48.665-33.8l25.118-17.214,25.653-17.243,12.949-8.711,13.1-8.643,26.4-17.406c35.527-23.046,71.713-46.328,108.311-68.853,73-45.363,147.118-88.518,216.741-127.311l12.985-7.25,12.916-7.067L3325,783.3l49.117-26.359,46.375-24.359q22.411-11.642,43.1-22.143c55.026-28,100.026-49.378,128.969-63.342-16.466,6.375-40.5,16.282-69.09,28.92s-61.729,28.023-96.554,44.956q-13.065,6.336-26.381,12.986l-26.787,13.359-6.74,3.364-6.713,3.437-13.436,6.884c-8.948,4.6-17.923,9.144-26.782,13.777-35.431,18.55-69.914,36.954-100.588,53.976-61.426,33.909-108.107,61.378-119.778,67.994-5.829,3.319-2.953,1.351,11.337-7.4l30.443-18.223,10.532-6.263,11.823-6.88,27.479-15.968c52.659-30.138,109.05-61.185,166.009-91.164,7.091-3.8,14.25-7.477,21.384-11.181l21.381-11.094c14.221-7.408,28.479-14.619,42.641-21.759,28.338-14.257,56.428-27.984,83.865-40.939-13.973,6.254-28.556,12.944-43.506,19.95q52.244-25.058,105.415-48.116c61.97-25.564,125.178-48.38,189.592-66.807-60.77,66.133-119.639,138.354-158.691,219.755-13.083,27.269-25.029,55.158-34.6,83.794q-4.732,12.7-8.777,25.668c-1.719,5.41-3.239,10.88-4.767,16.354l-2.123,8.258c-.706,2.754-1.3,5.536-1.95,8.305s-1.217,5.559-1.781,8.349l-.842,4.147a17.643,17.643,0,0,1-.476,1.889l-.585,2.08a135.406,135.406,0,0,0-3.474,16.962,130.516,130.516,0,0,0-.133,34.746,133.966,133.966,0,0,0,3.361,17.169,136.375,136.375,0,0,0,5.66,16.6,131.511,131.511,0,0,0,17.7,30.377,134.091,134.091,0,0,0,11.737,13.22,137.462,137.462,0,0,0,13.392,11.585,132.772,132.772,0,0,0,30.907,17.452,135.837,135.837,0,0,1-33.57-18.11,140.639,140.639,0,0,1-13.24-11.1,142.176,142.176,0,0,1-10.983-11.753,136.617,136.617,0,0,1-15.927-23.767c-2.017-3.893-3.84-7.672-5.347-11.369-.8-1.833-1.452-3.665-2.15-5.432-.621-1.8-1.28-3.511-1.821-5.252a147.959,147.959,0,0,1-6.6-33.649c-.678-8.482-.483-14.082-.558-16.9-.04-2.817-.3-2.877-.782-.307a92.246,92.246,0,0,0-1.151,15.507,136.225,136.225,0,0,0,3.485,30.112c.363,1.533.7,3.109,1.166,4.694.439,1.592.888,3.223,1.41,4.832q.383,1.218.772,2.46l.864,2.489c.563,1.683,1.228,3.369,1.892,5.093a139.539,139.539,0,0,0,10.614,21.357c2.242,3.616,4.678,7.273,7.381,10.891,2.721,3.6,5.658,7.2,8.857,10.721a142.855,142.855,0,0,0,22.572,20,138.62,138.62,0,0,0,29.085,15.937c1.328.566,2.693,1.047,4.053,1.565s2.745.984,4.134,1.458,2.807.923,4.25,1.358l2.165.652,2.194.574a148.3,148.3,0,0,0,18,3.539,142.173,142.173,0,0,0,38.708-.188c1.654-.231,3.313-.476,4.962-.789l2.485-.445,2.476-.518,2.485-.53,2.472-.6.981-.241c.175-.033.392-.105.591-.129l1.675-.271,19.028-3.128c25.645-4.648,52.43-10.85,80.06-18.507s56.113-16.729,85.314-26.791,59.144-21.081,89.856-32.366q23.041-8.47,46.676-16.991c7.882-2.838,15.823-5.591,23.808-8.419l24.236-8.369q48.8-16.72,99.951-33.129c68.135-21.7,139.157-42.374,212.093-59.925q54.674-13.227,110.636-23.721,27.94-5.2,56.082-9.626l7.036-1.09,6.949-1.043,3.465-.516c1.155-.177,2.309-.348,3.476-.473l6.976-.829,6.994-.821,7.071-.78c4.714-.536,9.431-1.015,14.149-1.487,37.741-3.8,75.57-6.279,113.235-7.263q28.248-.739,56.336-.35c4.678.08,9.354.123,14.021.269l7,.185,1.749.046c.583.015,1.132.035,1.872.032h4.157a125.1,125.1,0,0,0,31.973-4.675,156.274,156.274,0,0,0,55.514-28.363,131.01,131.01,0,0,0,22.02-22.583,156.173,156.173,0,0,0,16.23-26.155,153,153,0,0,0,10.767-28.664A122.468,122.468,0,0,0,4973.1,723l-.054-4c0-.689-.05-1.283-.088-1.9l-.12-1.841-.243-3.678-.367-3.671c-.129-1.223-.238-2.446-.389-3.666l-.508-3.656c-.183-1.217-.314-2.437-.542-3.648l-.651-3.637a162.632,162.632,0,0,0-7.949-28.53,134.147,134.147,0,0,0-13.647-26.632c-1.458-2.055-2.855-4.144-4.381-6.148l-2.353-2.961c-.8-.975-1.54-1.991-2.409-2.912l-2.537-2.811c-.851-.931-1.673-1.885-2.6-2.749l-2.712-2.642c-.905-.879-1.815-1.777-2.705-2.526a167.9,167.9,0,0,0-22.758-17.253,151.35,151.35,0,0,0-25.45-12.874,149.511,149.511,0,0,0-27.1-7.744l-3.433-.634-3.441-.491-3.437-.475c-1.146-.134-2.292-.227-3.437-.34l-3.432-.321c-1.143-.1-2.284-.132-3.424-.2l-3.418-.171-.854-.042-.79-.016-1.57-.028-24.944-.442c-4.127-.114-8.239-.021-12.335-.027l-12.24.049-6.085.026c-2.023,0-4.043.011-6.057.077l-12.041.3c-7.993.223-15.925.326-23.772.753l-23.345,1.069L4682.59,578.1c-30.2,2.2-59.182,4.919-86.7,8.415-55.087,6.678-104.432,15.471-146.956,24.123-42.524,8.69-78.215,17.408-106.052,24.676,30.925-6.605,76.434-16.393,131.611-25.595,27.559-4.731,57.567-9.114,89.291-13.1l11.979-1.457c4.019-.479,8.055-1.016,12.132-1.414l24.7-2.6c16.664-1.52,33.652-3.1,50.923-4.2,34.526-2.359,70.1-3.745,105.958-3.844l26.938.194c8.987.2,17.98.5,26.969.739l3.37.1,1.689.053,1.739.1c2.317.161,4.637.223,6.946.509,2.312.253,4.626.436,6.922.822,2.3.343,4.6.658,6.877,1.145a140.678,140.678,0,0,1,26.672,7.87,142.269,142.269,0,0,1,24.434,12.86,158.988,158.988,0,0,1,21.373,16.929,108.224,108.224,0,0,1,17.322,21.133,126.384,126.384,0,0,1,11.724,24.06,151.861,151.861,0,0,1,6.769,25.261c.769,4.244,1.355,8.492,1.792,12.73q.149,1.59.3,3.176l.147,1.585.092,1.586q.092,1.586.183,3.166l.091,1.58.014,1.619a106.591,106.591,0,0,1-2.612,25.245,131.26,131.26,0,0,1-7.518,23.331,149.589,149.589,0,0,1-11,21.039,133.737,133.737,0,0,1-13.821,18.417,121.253,121.253,0,0,1-16.407,15.044,134.359,134.359,0,0,1-17.828,11.583,139.839,139.839,0,0,1-36.9,13.989l-2.283.516-2.292.4c-1.526.253-3.03.556-4.541.76-3.032.343-6.006.772-8.973.867l-2.209.126-1.1.062-1.1,0-4.344-.027c-.728,0-1.417-.019-2.095-.045l-2.039-.069-4.023-.137c-42.534-1.421-72.528-.6-84.426-.452-5.952.109-7.387.072-3.618-.139s12.742-.615,27.614-.919,35.643-.491,62.981.256c1.713.039,3.43.1,5.215.123l5.5-.007c1.854-.086,3.732-.23,5.638-.347.955-.037,1.9-.188,2.863-.3l2.9-.36a126.978,126.978,0,0,0,24-5.883,143.525,143.525,0,0,0,24.795-11.415l1.563-.889,1.53-.965,3.086-1.947c1.049-.63,2.033-1.377,3.056-2.073l3.062-2.139,2.995-2.309c1-.783,2.033-1.528,2.99-2.384,1.944-1.674,3.958-3.312,5.826-5.164a114.906,114.906,0,0,0,13.721-15.416,147.888,147.888,0,0,0,11.186-17.465,154.384,154.384,0,0,0,8.573-19.027,128.557,128.557,0,0,0,5.594-20.267l.464-2.6c.156-.868.321-1.735.406-2.616l.626-5.268.3-5.312c.073-.885.052-1.775.041-2.665l-.028-2.67a171.412,171.412,0,0,0-1.959-21.093,160.3,160.3,0,0,0-4.752-20.748l-.793-2.551c-.262-.851-.522-1.7-.841-2.537l-1.822-5.034-2.063-4.95c-.329-.832-.723-1.636-1.11-2.444l-1.157-2.424a119.244,119.244,0,0,0-11.155-18.409,108.44,108.44,0,0,0-14.681-15.854l-2.022-1.778c-.671-.6-1.346-1.188-2.053-1.744l-4.189-3.394-4.33-3.224c-1.44-1.079-2.965-2.044-4.443-3.072A143.8,143.8,0,0,0,4883,600.928a138.661,138.661,0,0,0-41.6-11.738l-5.4-.526c-.9-.1-1.8-.155-2.7-.2l-2.708-.144c-.9-.043-1.808-.1-2.706-.134l-2.684-.056-5.369-.11-21.48-.439-21.482.011c-3.58.014-7.159-.014-10.737.036l-10.731.236-10.726.237-5.361.119-2.68.062-2.678.113-21.4.9c-28.5,1.46-56.868,3.43-84.937,6.376l-10.521,1.043c-3.5.34-6.993.8-10.484,1.19l-20.894,2.442-20.756,2.765-10.338,1.387-10.287,1.546-20.482,3.093-20.31,3.382-10.1,1.7-10.044,1.827-19.977,3.65c26.25-4.677,53.8-9.109,82.244-13.026-67.492,9.647-134.474,22.857-200.42,38.58-135.271,32.249-267.4,76.124-398.188,123.148,21.42-23.987,43.673-47.242,66.269-70.125,15.094-15.287,30.487-30.265,45.78-45.318,22.815-20.393,45.326-41.177,66.477-63.5,11.115-11.757,21.839-23.939,31.976-36.649,1.272-1.593,2.559-3.13,3.809-4.816l1.882-2.486,1.814-2.534c1.231-1.677,2.341-3.427,3.518-5.141,1.11-1.75,2.258-3.483,3.32-5.26a239.818,239.818,0,0,0,11.722-21.8,246.9,246.9,0,0,1-11.689,23.862c-1.052,1.8-2.043,3.6-3.117,5.313q-.79,1.293-1.567,2.564L4165.647,545c-1.043,1.652-2.155,3.221-3.222,4.776-.535.792-1.068,1.523-1.6,2.245l-1.568,2.157c-8.19,11.478-15.606,20.742-21.648,28.429q-4.614,5.691-8.249,10.177-3.692,4.439-6.384,7.758c-3.594,4.432-5.96,7.307-7.016,8.88-2.146,3.109.758.8,8.007-6.371,3.587-3.628,8.295-8.434,13.849-14.553,2.819-3.015,5.78-6.427,9-10.1,3.251-3.64,6.561-7.735,10.162-12.035q1.357-1.606,2.692-3.324l2.736-3.461,2.814-3.565,1.438-1.83q.738-.989,1.483-1.991a188.919,188.919,0,0,0,11.487-17.461c7.361-12.535,13.8-26.772,19.9-41.895q1.13-2.831,2.281-5.711.577-1.467,1.159-2.945c.422-1.083.824-2.183,1.217-3.291a116.562,116.562,0,0,0,3.946-13.827c.528-2.346.979-4.953,1.329-6.9q.582-3.206,1.17-6.46c.792-4.393,1.589-8.969,2.272-13.757s1.246-9.792,1.53-15.051c.051-1.327.125-2.645.135-4.006l.024-2.034-.025-1.953c-.014-1.3-.032-2.614-.1-3.931s-.1-2.637-.2-3.963a149.838,149.838,0,0,0-5.64-32.12c-1.524-5.307-3.316-10.545-5.3-15.692q-.732-1.938-1.52-3.844l-.782-1.92-.848-1.949q-.855-1.95-1.712-3.909l-1.86-3.877-.942-1.943-1.008-1.92c-.679-1.28-1.344-2.57-2.042-3.847-1.469-2.52-2.869-5.095-4.48-7.571a156.653,156.653,0,0,0-10.309-14.641q-1.425-1.761-2.857-3.531l-3-3.439c-.507-.57-1-1.154-1.521-1.713l-1.581-1.666c-1.066-1.1-2.1-2.244-3.2-3.314a167.7,167.7,0,0,0-13.928-12.358,175.879,175.879,0,0,0-15.5-10.777,153.917,153.917,0,0,0-17.143-9.022,165.765,165.765,0,0,0-37.305-11.366c-6.335-1.2-12.662-2.117-18.945-2.866-3.133-.356-6.271-.7-9.387-1l-1.173-.117-1.267-.109c-.85-.067-1.709-.15-2.556-.2-1.7-.113-3.392-.212-5.073-.272-13.476-.523-26.37.457-38.662,1.129l-9.46.551c-3.181.2-6.373.35-9.565.6-6.386.456-12.805.884-19.241,1.448a1333.024,1333.024,0,0,0-157.744,22.686c-13.31,2.7-26.612,5.684-39.931,8.775-13.272,3.294-26.63,6.432-39.865,10.091-13.3,3.439-26.476,7.367-39.708,11.15-13.141,4.056-26.341,7.975-39.382,12.332-13.108,4.172-26.063,8.743-39.044,13.189-12.893,4.67-25.816,9.217-38.559,14.116-12.8,4.751-25.444,9.8-38.072,14.753l-18.8,7.648c-3.123,1.283-6.259,2.53-9.361,3.838l-9.3,3.919-9.278,3.91c-3.091,1.3-6.174,2.6-9.233,3.944l-18.341,7.966c-6.094,2.653-12.124,5.39-18.159,8.07l-9.029,4.031-8.961,4.09c-23.89,10.827-47.22,21.919-70.069,32.892-91.343,44.041-173.83,88.48-242,127.361-34.09,19.442-64.6,37.507-90.872,53.485-26.285,15.947-48.252,29.954-65.431,40.973,9.8-5.461,21.865-12.288,35.77-20.227,13.918-7.917,29.747-16.822,47.044-26.517,34.6-19.372,75.2-41.655,118.545-64.64,21.678-11.478,44.053-23.106,66.675-34.685,22.648-11.529,45.553-22.988,68.288-34.132,45.507-22.222,90.317-43.2,130.907-61.222,81.111-36.249,145.5-60,161.578-65.43,8.012-2.807,3.942-1.108-15.858,6.471-19.739,7.726-55.175,21.482-108.911,45.072-35.134,15.412-71,32.031-107.138,49.413-36.133,17.4-72.54,35.568-108.629,54.343-36.1,18.758-71.921,38.038-106.968,57.505s-69.295,39.164-102.311,58.644c16.757-9.532,34.343-19.44,52.506-29.539Q3043.64,626.4,3000.97,651.6q-179.036,105.714-348.637,226.417-21.276,15.144-42.388,30.516a97.526,97.526,0,0,0-36.207,33.237c-.265.29-.518.587-.779.879-.259.257-.52.512-.775.772-.573.557-1.114,1.143-1.662,1.726s-1.1,1.158-1.624,1.765a92.552,92.552,0,0,0-6.047,7.493,94.936,94.936,0,0,0-9.718,16.775,94.573,94.573,0,0,0-3.578,9.089c-.546,1.549-.992,3.085-1.466,4.625Z" transform="translate(-5.686 -4.567)" fill="#f3f3f3"></path><path id="Path_39432" data-name="Path 39432" d="M3300.248,1185.093c-5.343,3.091-12.177,7.132-18.514,10.945-6.3,3.872-12.1,7.521-15.429,9.737-17.046,10.988-12.358,8.56-1.746,2.275,5.308-3.138,12.091-7.255,18.395-11.118,6.335-3.812,12.174-7.4,15.533-9.589C3315.65,1176.526,3310.934,1178.91,3300.248,1185.093Z" transform="translate(-205.765 -261.448)" fill="#f3f3f3"></path><path id="Path_39433" data-name="Path 39433" d="M3144.946,1262.891c-3.746,2.306-8.942,5.465-14.912,9.3l-19.946,12.749-10.834,6.961-5.445,3.514-5.365,3.537c-14.194,9.367-27.32,18.084-34.918,23.253-38.462,26.364-28.241,19.873-4.627,4.171l41.3-27.155,5.266-3.471,5.145-3.33,9.622-6.25c6.048-3.939,11.271-7.362,15.108-9.912,4.88-3.191,8.965-5.922,12.393-8.13l8.225-5.346c4.166-2.729,5.789-3.85,5.433-3.714S3148.7,1260.595,3144.946,1262.891Z" transform="translate(-142.751 -283.423)" fill="#f3f3f3"></path><path id="Path_39434" data-name="Path 39434" d="M3238.644,1231.679c2.1-1.193,5.282-3.072,8.4-5.084C3253.506,1222.394,3241.069,1229.912,3238.644,1231.679Z" transform="translate(-201.219 -274.069)" fill="#f3f3f3"></path><path id="Path_39435" data-name="Path 39435" d="M3238.895,1235.189c2.99-2-1.7.73-2.877,1.568C3233.022,1238.756,3237.719,1236.028,3238.895,1235.189Z" transform="translate(-200.217 -276.604)" fill="#f3f3f3"></path><path id="Path_39436" data-name="Path 39436" d="M2522.4,1281.242c-.2,1.455-.423,2.9-.593,4.328.193-1.521.433-3.031.638-4.5.229-1.47.369-2.892.643-4.255q-.106.563-.211,1.12-.082.557-.161,1.109Q2522.559,1280.15,2522.4,1281.242Z" transform="translate(-2.357 -288.35)" fill="#f3f3f3"></path><path id="Path_39437" data-name="Path 39437" d="M2554.335,1432.36c.836,1.213,1.755,2.572,2.841,3.98a161.061,161.061,0,0,0,16.285,18.866c1.493,1.56,3.106,2.981,4.606,4.384l2.227,2.036,2.208,1.854c1.44,1.184,2.745,2.319,4.008,3.267s2.4,1.785,3.371,2.486l1.755,1.3c.568.408,1.14.774,1.673,1.136l2.946,1.954c1.76,1.2,3.264,2.031,4.4,2.686,2.282,1.3,3.214,1.76,3.091,1.582-.217-.389-4.8-3.166-10.711-7.562-1.485-1.089-2.993-2.335-4.612-3.595-1.636-1.246-3.221-2.648-4.864-4.06l-2.479-2.142-2.4-2.246-2.4-2.251c-.8-.746-1.537-1.536-2.3-2.293-3.067-3.02-5.808-6.076-8.252-8.748-2.332-2.744-4.43-5.065-5.852-6.851-7.3-9.034-9.594-12.643-9.58-12.209a25.094,25.094,0,0,0,1.869,3.223Z" transform="translate(-10.258 -329.708)" fill="#f3f3f3"></path><path id="Path_39438" data-name="Path 39438" d="M2536.977,1402.569c.6,1.24,1.215,2.474,1.826,3.679,7.9,13.869-.261-.5-3.389-7.411C2535.914,1400.069,2536.369,1401.331,2536.977,1402.569Z" transform="translate(-6.131 -322.201)" fill="#f3f3f3"></path><path id="Path_39439" data-name="Path 39439" d="M2545,1421.44c.7,1.044,1.32,1.9,1.424,1.993.051.043-.029-.112-.3-.547l-.548-.873c-.117-.187-.249-.395-.394-.624l-.5-.858c-.366-.6-.731-1.2-1.112-1.8C2541.829,1416.134,2543.545,1419.1,2545,1421.44Z" transform="translate(-8.191 -327.44)" fill="#f3f3f3"></path><path id="Path_39440" data-name="Path 39440" d="M3423.5,904.957c-11.874,5.85-23.635,11.845-35.377,17.783l-17.579,8.9c-5.853,2.959-11.639,6.026-17.447,9.029l-17.374,9.041c-5.778,3.018-11.57,5.991-17.29,9.079l-34.3,18.334c-11.371,6.151-22.65,12.4-33.93,18.573-11.3,6.14-22.452,12.478-33.606,18.75l-16.7,9.408-4.169,2.35-4.143,2.391-8.278,4.777c-11.023,6.382-22.056,12.69-33,19.1l-32.678,19.335c-5.449,3.195-10.835,6.481-16.227,9.748l-16.159,9.793c-42.99,26.191-85.361,52.732-127,80.018l-7.826,5.083q-3.918,2.529-7.8,5.117l-15.528,10.31c-10.336,6.888-20.723,13.68-30.954,20.69l-30.766,20.873-30.525,21.154c-10.2,7-20.254,14.216-30.362,21.344-10.1,7.145-20.214,14.254-30.209,21.536l-15.039,10.86-7.521,5.429-3.76,2.715-1.88,1.357-2.333,1.637a94.088,94.088,0,0,1-9.915,5.984c-1.687.923-3.414,1.71-5.131,2.538-1.734.756-3.464,1.544-5.217,2.21a110.34,110.34,0,0,1-10.58,3.6c-3.547,1.043-7.109,1.861-10.668,2.575a159.615,159.615,0,0,1-42.244,2.271q-5.191-.373-10.329-1.03t-10.226-1.576c-1.7-.3-3.387-.642-5.077-.983l-2.528-.548c-.428-.1-.827-.173-1.279-.289l-1.356-.35-5.415-1.426c-1.779-.543-3.536-1.15-5.3-1.732a121.693,121.693,0,0,1-20.127-9.066,136.747,136.747,0,0,1-18.012-12.046,155.352,155.352,0,0,1-15.805-14.254,173.966,173.966,0,0,1-13.708-15.9c-1.089-1.364-2.1-2.779-3.111-4.19s-2.06-2.8-3-4.258l-2.889-4.329c-.98-1.6-1.96-3.264-2.927-4.9-1.017-1.632-1.815-3.318-2.673-4.992-.835-1.678-1.735-3.348-2.424-5.057l-2.185-5.112-1.878-5.165a140.542,140.542,0,0,1-5.512-20.937l-.5-2.638c-.165-.879-.265-1.763-.4-2.646l-.743-5.3c-.314-3.542-.754-7.08-.859-10.635a155.574,155.574,0,0,1,.31-21.374c.166-1.787.315-3.573.507-5.361l.751-5.369c.216-1.787.622-3.582.95-5.373l.521-2.687c.164-.908.408-1.723.608-2.59l1.273-5.1.633-2.455c.213-.822.5-1.769.752-2.647,1.051-3.573,2.25-7.126,3.658-10.615a114.181,114.181,0,0,1,10.393-20.107c1.22-2.52,1.389-3.234.483-2.423a17.989,17.989,0,0,0-2.042,2.4c-.918,1.181-2,2.776-3.263,4.734a103.673,103.673,0,0,0-8.334,16.484c-1.388,3.494-2.756,7.429-3.934,11.548q-.389,1.423-.792,2.893l-.823,3.131q-.413,1.593-.838,3.234c-.27,1.11-.489,2.308-.737,3.484a152.849,152.849,0,0,0-3.054,31.159,157.794,157.794,0,0,0,4,35.409,129.082,129.082,0,0,0,14.612,37.36c1.857,3.25,3.62,5.737,5.424,8.469.916,1.338,1.886,2.648,2.832,3.974l1.43,1.984c.488.655,1,1.3,1.5,1.947l3.024,3.882,3.179,3.791c1.044,1.275,2.159,2.5,3.28,3.728s2.212,2.469,3.376,3.662c2.345,2.374,4.649,4.774,7.148,7.021,2.412,2.314,5.011,4.469,7.577,6.635,1.281,1.084,2.657,2.083,3.981,3.12s2.659,2.063,4.071,3.01l4.166,2.882c1.418.923,2.873,1.8,4.306,2.693l2.156,1.326c.734.421,1.484.822,2.224,1.231l4.449,2.418,4.576,2.178,2.283,1.068,2.341.953,4.666,1.868,4.752,1.591,2.364.776c.8.23,1.6.435,2.4.65l4.777,1.249c5.912,1.382,11.618,2.4,17.28,3.211,5.645.8,11.185,1.319,16.574,1.611a168.945,168.945,0,0,0,30.2-1,135.372,135.372,0,0,0,24.352-5.312,119.669,119.669,0,0,0,16.213-6.51c3.863-1.9,6.129-3.234,6.69-3.417.55-.218-.617.661-3.837,2.621a114.337,114.337,0,0,1-17.547,7.831,129.369,129.369,0,0,1-16.632,4.553,159.01,159.01,0,0,1-29.523,3.113,192.349,192.349,0,0,1-24.875-1.306c-3.811-.45-7.473-.967-11-1.585-1.765-.3-3.493-.626-5.193-.96l-2.527-.516c-.874-.194-1.808-.434-2.7-.649-1.8-.444-3.568-.88-5.3-1.336l-5.043-1.589c-.826-.268-1.653-.521-2.46-.8l-2.371-.906-4.644-1.8a141.178,141.178,0,0,1-16.57-8.416,155.613,155.613,0,0,1-26.833-20.252,183.114,183.114,0,0,1-22.6-25.738l-1.368-1.861q-.654-.955-1.319-1.923l-2.685-3.941-2.883-4.732c-.473-.805-.99-1.612-1.43-2.437l-1.3-2.5a128.029,128.029,0,0,1-9.032-21.932l-.918-3q-.23-.757-.461-1.52l-.395-1.536q-.77-3.091-1.568-6.295-.639-3.214-1.3-6.546c-.237-1.112-.382-2.236-.558-3.371l-.51-3.437a170.192,170.192,0,0,1-1.407-30.107c.069-1.359.073-2.726.206-4.115q.177-2.083.357-4.2c.191-2.823.665-5.727,1.048-8.673.174-1.47.484-2.97.758-4.478s.576-3.027.868-4.561q.524-2.173,1.057-4.386.532-2.156,1.076-4.352c.318-1.339.814-3.042,1.275-4.662.479-1.631,1.009-3.272,1.557-4.924,1.132-3.3,2.4-6.636,3.862-9.979s3.086-6.7,4.938-10.025c1.831-3.332,3.847-6.648,6.077-9.9a121.453,121.453,0,0,0-14.886,28.988c-.394,1.06-.745,2.146-1.1,3.249s-.721,2.225-1.045,3.369c-.731,2.429-1.186,4.289-1.771,6.553l-.866,3.448q-.216.875-.437,1.76l-.218.892-.189.949q-.373,1.906-.756,3.861c-.245,1.3-.53,2.627-.7,3.954a160.774,160.774,0,0,0-1.739,16.665,171.65,171.65,0,0,0,2.109,37.263q.469,2.482.946,5c.169.84.3,1.684.508,2.53s.406,1.694.61,2.547c.419,1.7.81,3.419,1.275,5.145l1.547,5.211c.49,1.748,1.131,3.5,1.766,5.269q.478,1.323.958,2.656c.32.888.637,1.778,1.031,2.668q1.139,2.666,2.294,5.367c.366.9.832,1.8,1.278,2.694l1.358,2.7,1.381,2.71q.786,1.346,1.576,2.7l1.606,2.705.814,1.355c.274.463.518.8.78,1.2l3.117,4.679c1.078,1.551,2.2,3.088,3.316,4.643a197.263,197.263,0,0,0,15.1,18.206,173.29,173.29,0,0,0,18.613,16.976,143.093,143.093,0,0,0,22.58,14.625,131.033,131.033,0,0,0,26.7,10.374l3.574.932c.625.169,1.118.261,1.673.388l1.628.358c2.174.464,4.36.9,6.563,1.3q6.607,1.2,13.4,1.975a186.1,186.1,0,0,0,27.961,1.127,154.4,154.4,0,0,0,29.517-3.84,121,121,0,0,0,30.194-11.335q3.7-2.019,7.315-4.356c1.21-.757,2.379-1.614,3.566-2.429l1.5-1.064,1.277-.917,10.261-7.368c13.742-9.849,27.622-19.926,41.831-29.83l21.341-15.016c3.561-2.528,7.171-5,10.779-7.485l10.839-7.469c57.857-39.936,117.768-79.4,175.433-115.7,115.268-72.734,221.715-132.353,281.023-164.584l19.912-10.876c5.833-3.215,10.912-5.871,15.06-8.131,8.315-4.489,13.06-7.112,13.679-7.577s-2.887,1.225-11.075,5.366c-4.089,2.076-9.364,4.739-15.854,8.1l-23.176,12.209-16.5,8.909c-5.4,2.933-10.667,5.882-15.866,8.742l-30.086,16.625-27.874,15.728-13.2,7.44-12.657,7.294-23.958,13.788-5.718,3.288-5.579,3.28-10.85,6.374-20.516,12.03-4.892,2.864-4.771,2.857-9.277,5.549-17.536,10.468c-5.628,3.354-11.053,6.565-16.23,9.743l-28.977,17.565-47.229,28.9-38.682,23.988c-3.075,1.884-6.1,3.8-9.135,5.72l-9.12,5.762-18.684,11.819c-3.193,2.033-6.461,4.07-9.76,6.214l-10.129,6.583-21.938,14.317c-7.78,5.038-15.925,10.592-24.744,16.5l-13.7,9.232c-3.465,2.338-7.029,4.736-10.668,7.234,212.122-147.136,440.194-278.813,670.762-393.782Q3459.069,887.3,3423.5,904.957Z" transform="translate(0 -175.585)" fill="#f3f3f3"></path><path id="Path_39441" data-name="Path 39441" d="M2543.4,1254c.265-.9.543-1.843.829-2.808s.6-1.948.908-2.934c1.36-4.081.608-2.328-.492.888-.262.806-.566,1.7-.839,2.621l-.778,2.757c-.44,1.73-.77,3.195-.913,4C2542.464,1257.284,2542.907,1255.723,2543.4,1254Z" transform="translate(-7.989 -279.767)" fill="#f3f3f3"></path><path id="Path_39442" data-name="Path 39442" d="M2540.088,1261.661c.406-1.851.221-1.4-.1-.3s-.779,2.93-.92,3.7C2538.262,1268.874,2539.8,1263.188,2540.088,1261.661Z" transform="translate(-7.081 -283.797)" fill="#f3f3f3"></path><path id="Path_39443" data-name="Path 39443" d="M2541.451,1237c-.343.774-1.1,2.654-1.473,3.875s-.5,1.744.263-.223c.316-.786,1.057-2.661,1.478-3.866C2542.18,1235.6,2542.316,1235.07,2541.451,1237Z" transform="translate(-7.314 -276.949)" fill="#f3f3f3"></path></g></svg> 